<svg xmlns="http://www.w3.org/2000/svg" width="63.008" height="38.607" viewBox="0 0 63.008 38.607">
  <g id="Group_7436" data-name="Group 7436" transform="translate(-4.994 -12.999)">
    <path id="Subtraction_3" data-name="Subtraction 3" d="M19.3,38.607A19.3,19.3,0,1,1,34.061,6.865a17.732,17.732,0,0,0-2.086,2.543,16.084,16.084,0,1,0,0,19.793,17.682,17.682,0,0,0,2.086,2.541A19.275,19.275,0,0,1,19.3,38.607Z" transform="translate(5.001 12.999)" fill="#004e95"/>
    <g id="Group_7435" data-name="Group 7435" transform="translate(35.562 16.218)">
      <circle id="Ellipse_334" data-name="Ellipse 334" cx="16" cy="16" r="16" transform="translate(0.44 -0.22)" fill="#004d94"/>
      <path id="Icon_awesome-arrow-down" data-name="Icon awesome-arrow-down" d="M14.558,8.871l.772.772a.831.831,0,0,1,0,1.178L8.577,17.577a.831.831,0,0,1-1.178,0L.642,10.82a.831.831,0,0,1,0-1.178l.772-.772a.835.835,0,0,1,1.192.014L6.6,13.072V3.084a.832.832,0,0,1,.83-.834H8.542a.832.832,0,0,1,.834.834v9.988l3.99-4.188a.829.829,0,0,1,1.192-.014Z" transform="translate(8.099 6.173)" fill="#fff"/>
    </g>
    <path id="Icon_awesome-rupee-sign" data-name="Icon awesome-rupee-sign" d="M9.664,4.258a.377.377,0,0,0,.377-.377V2.627a.377.377,0,0,0-.377-.377H.377A.377.377,0,0,0,0,2.627v1.4A.377.377,0,0,0,.377,4.4H3.052a2.264,2.264,0,0,1,1.913.855H.377A.377.377,0,0,0,0,5.639V6.894a.377.377,0,0,0,.377.377H5.358A2.168,2.168,0,0,1,3.012,9.11H.377A.377.377,0,0,0,0,9.487V11.15a.377.377,0,0,0,.121.277L5.3,16.208a.377.377,0,0,0,.255.1H8.146a.377.377,0,0,0,.255-.653l-4.734-4.37a4.3,4.3,0,0,0,4.34-4.013H9.664a.377.377,0,0,0,.377-.377V5.639a.377.377,0,0,0-.377-.377H7.823a4.3,4.3,0,0,0-.447-1Z" transform="translate(19.062 24.024)" fill="#126fed"/>
  </g>
</svg>
