<svg xmlns="http://www.w3.org/2000/svg" width="41.685" height="41.683" viewBox="0 0 41.685 41.683">
  <g id="Group_7330" data-name="Group 7330" transform="translate(0 -0.002)">
    <g id="Group_7329" data-name="Group 7329">
      <g id="Group_7328" data-name="Group 7328">
        <path id="Path_20958" data-name="Path 20958" d="M21.994,22.547a15.512,15.512,0,0,1,.5,1.7A12.159,12.159,0,1,0,9,12.158q0,.048,0,.1a15.586,15.586,0,0,1,1.744.294q-.007-.194-.007-.389A10.421,10.421,0,1,1,21.994,22.547Z" transform="translate(6.632)" fill="#2183ed" fill-rule="evenodd"/>
        <path id="Path_20959" data-name="Path 20959" d="M11.047,11.591A8.785,8.785,0,0,1,11,10.684a8.684,8.684,0,1,1,8.8,8.684,15.683,15.683,0,0,0-8.753-7.777Zm9.1,5.187v-.925c2.116-.168,3.329-1.254,3.329-3,0-1.479-.869-2.376-2.635-2.8l-.694-.147V7a1.56,1.56,0,0,1,1.472,1.444h1.675c-.035-1.577-1.254-2.7-3.146-2.873V4.605h-.967v.967C17.192,5.748,16,6.827,16,8.481c0,1.4.883,2.355,2.5,2.747l.673.168v3.062a1.7,1.7,0,0,1-1.689-1.479h-1.71c.007,1.654,1.31,2.754,3.4,2.887v.911Zm1.626-3.742c0,.841-.6,1.374-1.626,1.437V11.578c1.109.222,1.621.687,1.621,1.458Zm-4.043-4.7a1.408,1.408,0,0,1,1.451-1.345V9.707c-.952-.2-1.456-.666-1.456-1.367Z" transform="translate(8.106 1.474)" fill="#004e95" fill-rule="evenodd"/>
        <g id="Group_7325" data-name="Group 7325" transform="translate(0 13.895)">
          <path id="Path_20960" data-name="Path 20960" d="M13.9,27.79a13.9,13.9,0,1,1,13.9-13.9,13.9,13.9,0,0,1-13.9,13.9Zm0-1.737A12.158,12.158,0,1,0,1.737,13.9,12.158,12.158,0,0,0,13.9,26.053Z" fill="#2183ed" fill-rule="evenodd"/>
          <path id="Path_20961" data-name="Path 20961" d="M12.421,22.843A10.421,10.421,0,1,1,22.843,12.421,10.421,10.421,0,0,1,12.421,22.843Zm.458-4.328V17.59c2.116-.168,3.329-1.254,3.329-3,0-1.479-.869-2.376-2.635-2.8l-.694-.147v-2.9a1.56,1.56,0,0,1,1.472,1.444h1.675c-.035-1.577-1.254-2.7-3.146-2.873V6.342h-.967v.967c-1.983.175-3.174,1.254-3.174,2.908,0,1.4.883,2.355,2.5,2.747l.673.168V16.2a1.7,1.7,0,0,1-1.689-1.479H8.513c.007,1.654,1.31,2.754,3.4,2.887v.911ZM14.5,14.773c0,.841-.6,1.374-1.626,1.437V13.315C13.993,13.539,14.5,14,14.5,14.773Zm-4.043-4.7a1.408,1.408,0,0,1,1.451-1.345V11.44c-.942-.192-1.446-.662-1.446-1.363Z" transform="translate(1.474 1.474)" fill="#004e95" fill-rule="evenodd"/>
        </g>
        <g id="Group_7326" data-name="Group 7326" transform="translate(29.527 24.317)">
          <path id="Path_20962" data-name="Path 20962" d="M6.079,12.158a6.079,6.079,0,1,1,6.079-6.079,6.079,6.079,0,0,1-6.079,6.079Zm0-.76A5.319,5.319,0,1,0,.76,6.079,5.319,5.319,0,0,0,6.079,11.4Z" fill="#2183ed" fill-rule="evenodd"/>
          <path id="Path_20963" data-name="Path 20963" d="M5.434,9.994a4.559,4.559,0,1,1,4.56-4.56,4.559,4.559,0,0,1-4.56,4.56Zm.2-1.894V7.7C6.56,7.626,7.09,7.151,7.09,6.388c0-.647-.38-1.039-1.153-1.223l-.3-.064V3.823a.683.683,0,0,1,.644.632h.733A1.338,1.338,0,0,0,5.635,3.2V2.775H5.212V3.2c-.868.077-1.389.549-1.389,1.272a1.223,1.223,0,0,0,1.1,1.2l.294.074v1.34a.742.742,0,0,1-.739-.647H3.725c0,.724.573,1.2,1.487,1.263v.4Zm.711-1.637c0,.368-.261.6-.711.629V5.825c.488.1.712.3.712.638ZM4.577,4.409a.616.616,0,0,1,.635-.589V5.007C4.8,4.921,4.577,4.715,4.577,4.409Z" transform="translate(0.645 0.645)" fill="#004e95" fill-rule="evenodd"/>
        </g>
        <g id="Group_7327" data-name="Group 7327">
          <path id="Path_20964" data-name="Path 20964" d="M6.948,13.9A6.948,6.948,0,1,1,13.9,6.949,6.948,6.948,0,0,1,6.948,13.9Zm0-.868A6.079,6.079,0,1,0,.868,6.948a6.079,6.079,0,0,0,6.08,6.084Z" fill="#2183ed" fill-rule="evenodd"/>
          <path id="Path_20965" data-name="Path 20965" d="M6.211,11.421A5.211,5.211,0,1,1,11.422,6.21a5.211,5.211,0,0,1-5.211,5.211ZM6.44,9.257V8.8C7.5,8.711,8.1,8.168,8.1,7.3c0-.739-.434-1.188-1.317-1.4L6.44,5.824V4.369a.78.78,0,0,1,.736.722h.837A1.53,1.53,0,0,0,6.44,3.655V3.171H5.956v.484c-.992.088-1.587.627-1.587,1.454A1.4,1.4,0,0,0,5.62,6.482l.336.084V8.1a.848.848,0,0,1-.844-.739H4.257c0,.827.655,1.377,1.7,1.444v.456Zm.813-1.871c0,.42-.3.687-.813.718V6.657c.56.113.812.343.812.729ZM5.231,5.039a.7.7,0,0,1,.725-.673V5.722C5.483,5.624,5.231,5.389,5.231,5.039Z" transform="translate(0.737 0.737)" fill="#004e95" fill-rule="evenodd"/>
        </g>
      </g>
    </g>
  </g>
</svg>
