<svg xmlns="http://www.w3.org/2000/svg" width="42" height="37.874" viewBox="0 0 42 37.874">
  <g id="Group_7482" data-name="Group 7482" transform="translate(-4 -8.126)">
    <path id="eos-icons_performance" d="M40.629,5.774,31.694,17.012l-.415.51L20.654,31.089a3.776,3.776,0,1,1-5.34-5.34ZM4.1,11.877A20.462,20.462,0,0,0,1.359,26.532H2.888V24.645A18.276,18.276,0,0,1,6.077,14.228ZM21.758,2A20.681,20.681,0,0,0,6.434,8.789L8.6,11.36a14.017,14.017,0,0,1,9.388-3.7,14.025,14.025,0,0,1,9.43,3.733l6.7-5.288A20.637,20.637,0,0,0,21.758,2ZM34.647,19.361l-.44.542-1.374,1.755a19.086,19.086,0,0,1,.247,2.987v1.887h9.077a20.53,20.53,0,0,0-2.232-13.81Z" transform="translate(3.242 6.126)" fill="#004e95"/>
    <rect id="Rectangle_2279" data-name="Rectangle 2279" width="42" height="4" transform="translate(4 42)" fill="#126fed"/>
  </g>
</svg>
