<svg xmlns="http://www.w3.org/2000/svg" width="44.063" height="36.401" viewBox="0 0 44.063 36.401">
  <g id="Google_AdX_Console_-_Get_Access_to_Premium_Demand_Partners___GreedyGame-4" data-name="Google AdX Console - Get Access to Premium Demand Partners _ GreedyGame-4" transform="translate(-49.998 -84.915)">
    <g id="Group_7360" data-name="Group 7360" transform="translate(61.54 88.231)">
      <path id="Path_21104" data-name="Path 21104" d="M172.858,194.275c-1.28-1.067-2.526-2.181-3.852-3.186a22.62,22.62,0,0,0-2.88-1.8,37.748,37.748,0,0,0-8.931-3.55c-.715-.178-1.45-.268-2.177-.4l-.348-.014-.01-1.91V173.44a16.626,16.626,0,0,0,4.612-1.008c1.49-.534,2.977-1.155,4.462-1.735.067-.026.138-.042.207-.063.129.116.266.22.388.346q4.013,4.02,8.028,8.02a2.434,2.434,0,0,0,.5.3q.013,2.19.029,4.377v5.954Q172.874,191.952,172.858,194.275Z" transform="translate(-154.66 -164.512)" fill="#f2f2f2"/>
      <path id="Path_21105" data-name="Path 21105" d="M247.8,129.851a2.4,2.4,0,0,1-.5-.3q-4.02-4-8.027-8.017c-.122-.122-.259-.23-.388-.346.331-.179.654-.37.992-.535a30.933,30.933,0,0,0,5.658-3.559c.794-.627,1.511-1.353,2.262-2.034q.013,1.227.028,2.454v8.226Z" transform="translate(-229.603 -115.06)" fill="#f2f2f2"/>
    </g>
    <g id="Group_7361" data-name="Group 7361" transform="translate(79.737 84.906)">
      <path id="Path_21106" data-name="Path 21106" d="M319.72,216.04q.013-2.056.028-4.11a3.1,3.1,0,0,1,.411.3c1.557,1.544,3.1,3.1,4.664,4.65a2.528,2.528,0,0,0,.5.3v8.49a3.2,3.2,0,0,1-.41-.3c-1.533-1.525-3.057-3.057-4.593-4.579a3.364,3.364,0,0,0-.568-.372Q319.733,218.23,319.72,216.04Z" transform="translate(-319.718 -197.924)" fill="#004e95"/>
      <path id="Path_21107" data-name="Path 21107" d="M325.542,150.8a2.5,2.5,0,0,1-.5-.3c-1.559-1.544-3.107-3.1-4.664-4.65a3.1,3.1,0,0,0-.411-.3v-8.23a2.406,2.406,0,0,1,.5.3c1.559,1.544,3.108,3.1,4.664,4.651a3.3,3.3,0,0,0,.411.3Z" transform="translate(-319.94 -131.541)" fill="#004e95"/>
      <path id="Path_21108" data-name="Path 21108" d="M325.32,95.936a3.314,3.314,0,0,1-.411-.3c-1.556-1.549-3.1-3.1-4.664-4.651a2.432,2.432,0,0,0-.5-.3q-.013-1.227-.028-2.454a3.518,3.518,0,0,1,.441-2.011,2.8,2.8,0,0,1,5.167,1.463C325.336,90.429,325.324,93.186,325.32,95.936ZM319.751,107.4a3.653,3.653,0,0,1,.568.372c1.536,1.522,3.061,3.054,4.593,4.579a3.219,3.219,0,0,0,.41.3l-.007,6.038a3.424,3.424,0,0,1-.409-.3q-2.375-2.365-4.741-4.741a3.181,3.181,0,0,0-.411-.3Z" transform="translate(-319.718 -84.906)" fill="#004e95"/>
      <path id="Path_21109" data-name="Path 21109" d="M319.733,342.88a3.174,3.174,0,0,1,.411.3q2.377,2.365,4.741,4.741a3.412,3.412,0,0,0,.409.3,2.777,2.777,0,0,1-2.781,2.625,2.81,2.81,0,0,1-2.8-2.626c-.011-.232-.013-.464-.019-.7Z" transform="translate(-319.7 -314.436)" fill="#004e95"/>
    </g>
    <path id="Union_2" data-name="Union 2" d="M1.01,8.026a.976.976,0,0,1-1-1C0,6.214.011,5.41.015,4.607a1.921,1.921,0,0,1,.421.228Q1.827,6.2,3.2,7.6a.43.43,0,0,1,.037.042.524.524,0,0,0-.042-.051Q1.826,6.2.431,4.825A1.676,1.676,0,0,0,.01,4.6L.015,2.02,0,.02.091,0,1.252.024V.031H4L4.924.008H6.759l.332.013Q6.772,1.313,6.45,2.609h0L5.866,4.9h0L5.329,7.1h0a1.012,1.012,0,0,1-1.122.916c-.262,0-.526-.008-.786-.014v.009c-.633,0-1.267.013-1.9.013Q1.267,8.03,1.01,8.026Z" transform="translate(54.46 109.042)" fill="#28344d"/>
    <path id="Path_21112" data-name="Path 21112" d="M384.656,161.482a1.052,1.052,0,0,1-1.161-.818,1.034,1.034,0,0,1,.542-1.131c1.041-.518,2.084-1.031,3.139-1.518a1,1,0,0,1,1.433.465,1.054,1.054,0,0,1-.56,1.442q-1.487.731-2.977,1.441a1.969,1.969,0,0,1-.416.119Zm4.161,15.581c-.1.83-.772,1.351-1.474,1.05-1.149-.494-2.272-1.049-3.387-1.614a1.025,1.025,0,0,1-.367-1.342,1.1,1.1,0,0,1,1.353-.5c1.11.513,2.218,1.034,3.293,1.614.258.148.392.523.583.792Zm-.792-7.973c-.568,0-1.135.008-1.7,0a1.05,1.05,0,1,1-.012-2.1q1.7-.013,3.4,0a1.048,1.048,0,0,1,.011,2.1c-.569.015-1.131.005-1.7.005Z" transform="translate(-296.705 -64.93)" fill="#cacaca"/>
    <g id="Group_7362" data-name="Group 7362" transform="translate(50 97.154)">
      <path id="Path_21113" data-name="Path 21113" d="M50.12,210.257a15.56,15.56,0,0,1,.1-2.02,4.322,4.322,0,0,1,.569-1.137,2.55,2.55,0,0,1,.709.324c.936.9,1.841,1.827,2.763,2.74a2.636,2.636,0,0,0,.383.268q.01,1.138.022,2.275l-.023,1.751a2.146,2.146,0,0,1-.466-.269c-1.221-1.206-2.426-2.426-3.647-3.633a3.137,3.137,0,0,0-.411-.3Z" transform="translate(-50.107 -205.875)" fill="#004e95"/>
      <path id="Path_21114" data-name="Path 21114" d="M50.12,235.73a3.139,3.139,0,0,1,.411.3c1.218,1.213,2.426,2.426,3.647,3.633a2.145,2.145,0,0,0,.466.269v2.624a3.037,3.037,0,0,1-.412-.3q-1.819-1.819-3.646-3.633a2.177,2.177,0,0,0-.466-.27Z" transform="translate(-50.107 -231.348)" fill="#004e95"/>
      <path id="Path_21115" data-name="Path 21115" d="M50.014,202.993a2.176,2.176,0,0,1,.466.27c1.219,1.206,2.426,2.426,3.646,3.633a3.039,3.039,0,0,0,.412.3l.017.689-.1.021a11.941,11.941,0,0,1-2.119-.126A3.042,3.042,0,0,1,50,204.7C50,204.129,50.009,203.561,50.014,202.993Zm4.525-2.45a2.639,2.639,0,0,1-.383-.268c-.922-.913-1.827-1.842-2.763-2.74a2.374,2.374,0,0,0-.709-.324A2.845,2.845,0,0,1,52.89,196c.551-.041,1.1,0,1.654,0q.01,1.654.018,3.308-.012.617-.022,1.232Z" transform="translate(-50 -195.986)" fill="#004e95"/>
    </g>
    <g id="Group_7363" data-name="Group 7363" transform="translate(54.539 97.168)">
      <path id="Union_1" data-name="Union 1" d="M1.235,11.913.017,11.888,0,11.2V8.575L.022,6.824a2.119,2.119,0,0,1,.351.236q2.243,2.233,4.475,4.476a2.185,2.185,0,0,1,.238.35l-.964.028Zm5.354-2.24Q3.553,6.649.525,3.619a2.384,2.384,0,0,0-.5-.3L.008.011H.623L.618,0H3.769a1.328,1.328,0,0,0,.173.289Q5.319,1.68,6.711,3.057A1.375,1.375,0,0,0,7,3.228V9.971a3.071,3.071,0,0,1-.411-.3ZM.864.452q2.843,2.867,5.7,5.705a.787.787,0,0,0,.215.127.781.781,0,0,1-.223-.138Q3.695,3.3.857.441A.451.451,0,0,1,.825.406.489.489,0,0,0,.864.452Z" fill="#116eea"/>
      <path id="Path_21119" data-name="Path 21119" d="M98.174,199.358a1.383,1.383,0,0,1-.289-.171q-1.391-1.378-2.769-2.769a1.347,1.347,0,0,1-.173-.289h3.233Zm.009,8.649H96.256a2.218,2.218,0,0,0-.238-.35q-2.233-2.243-4.475-4.475a2.092,2.092,0,0,0-.351-.23q-.012-1.138-.022-2.275.01-.613.022-1.226a2.407,2.407,0,0,1,.5.3q3.04,3.02,6.064,6.053a3.062,3.062,0,0,0,.413.3Z" transform="translate(-91.17 -196.128)" fill="#116eea"/>
    </g>
  </g>
</svg>
